<svg width="48" height="48" viewBox="0 0 48 48" fill="none" xmlns="http://www.w3.org/2000/svg">
<path d="M35.76 12.2401L7.85994 40.1401C6.99994 41.0001 5.55994 40.9201 4.85994 39.9401C3.85994 38.5601 3.65996 36.6401 4.69996 34.9801L10.22 26.1201C10.96 24.9401 10.96 23.0201 10.22 21.8401L4.69996 12.9801C2.83996 10.0201 4.97994 6.18005 8.45994 6.18005H31.3599C32.7199 6.18005 34.3999 7.12005 35.1199 8.26005L36.0599 9.74005C36.5199 10.5601 36.42 11.5801 35.76 12.2401Z" fill="white"/>
<path opacity="0.4" d="M43.26 26.22L32.9 40.02C32.18 41 30.58 41.8 29.34 41.8H15.02C13.24 41.8 12.34 39.64 13.6 38.38L36.62 15.36C37.52 14.46 39.06 14.62 39.74 15.72L43.44 21.66C44.26 22.94 44.18 25 43.26 26.22Z" fill="white"/>
</svg>
