<svg width="48" height="48" viewBox="0 0 48 48" fill="none" xmlns="http://www.w3.org/2000/svg">
<path opacity="0.4" d="M30 45.5C29.46 45.5 28.96 45.2 28.7 44.74C28.44 44.28 28.44 43.7 28.72 43.24L30.82 39.74C31.24 39.02 32.16 38.8 32.88 39.22C33.6 39.64 33.82 40.56 33.4 41.28L32.86 42.1801C38.38 40.8801 42.52 35.92 42.52 30C42.52 29.18 43.2 28.5 44.02 28.5C44.84 28.5 45.52 29.18 45.52 30C45.5 38.54 38.54 45.5 30 45.5Z" fill="white"/>
<path opacity="0.4" d="M4 19.5C3.18 19.5 2.5 18.82 2.5 18C2.5 9.46 9.46 2.5 18 2.5C18.54 2.5 19.04 2.80001 19.3 3.26001C19.56 3.72001 19.56 4.30001 19.28 4.76001L17.18 8.26001C16.76 8.98001 15.84 9.20003 15.12 8.78003C14.4 8.36003 14.18 7.43997 14.6 6.71997L15.14 5.81995C9.62001 7.11995 5.48001 12.08 5.48001 18C5.50001 18.82 4.82 19.5 4 19.5Z" fill="white"/>
<path d="M21.3399 27.6999L15.0599 24.3199C14.3999 23.9599 13.5999 23.9599 12.9399 24.3199L6.65991 27.6999C6.19991 27.9399 5.91992 28.44 5.91992 28.98C5.91992 29.52 6.19991 30.02 6.65991 30.26L12.9399 33.64C13.2799 33.82 13.6399 33.9 13.9999 33.9C14.3599 33.9 14.7199 33.82 15.0599 33.64L21.3399 30.26C21.7999 30.02 22.0799 29.52 22.0799 28.98C22.0799 28.44 21.7799 27.9599 21.3399 27.6999Z" fill="white"/>
<path d="M11.9 34.82L6.05997 31.9001C5.61997 31.6801 5.09997 31.7 4.65997 31.96C4.23997 32.22 3.97998 32.6801 3.97998 33.1801V38.7C3.97998 39.66 4.49995 40.52 5.35995 40.94L11.2 43.86C11.4 43.96 11.62 44.0201 11.84 44.0201C12.1 44.0201 12.36 43.9401 12.6 43.8001C13.02 43.5401 13.28 43.08 13.28 42.58V37.0601C13.3 36.1001 12.76 35.24 11.9 34.82Z" fill="white"/>
<path d="M23.3199 31.96C22.8999 31.7 22.38 31.6801 21.92 31.9001L16.0799 34.82C15.2199 35.24 14.7 36.1001 14.7 37.0601V42.58C14.7 43.08 14.9599 43.5401 15.3799 43.8001C15.6199 43.9401 15.88 44.0201 16.14 44.0201C16.36 44.0201 16.5799 43.96 16.7799 43.86L22.6199 40.94C23.4799 40.52 23.9999 39.66 23.9999 38.7V33.1801C23.9999 32.6801 23.7399 32.22 23.3199 31.96Z" fill="white"/>
<path d="M41.3399 7.66001L35.0599 4.28001C34.3999 3.92001 33.5999 3.92001 32.9399 4.28001L26.6599 7.66001C26.1999 7.90001 25.9199 8.39992 25.9199 8.93992C25.9199 9.47992 26.1999 9.97995 26.6599 10.22L32.9399 13.6C33.2799 13.78 33.6399 13.86 33.9999 13.86C34.3599 13.86 34.7199 13.78 35.0599 13.6L41.3399 10.22C41.7999 9.97995 42.0799 9.47992 42.0799 8.93992C42.0799 8.37992 41.7799 7.90001 41.3399 7.66001Z" fill="white"/>
<path d="M31.9 14.76L26.06 11.8399C25.62 11.6199 25.1 11.64 24.66 11.9C24.24 12.16 23.98 12.62 23.98 13.12V18.64C23.98 19.6 24.5 20.46 25.36 20.88L31.2 23.8C31.4 23.9 31.62 23.9599 31.84 23.9599C32.1 23.9599 32.36 23.88 32.6 23.74C33.02 23.48 33.28 23.02 33.28 22.52V17C33.3 16.04 32.76 15.18 31.9 14.76Z" fill="white"/>
<path d="M43.3199 11.9C42.8999 11.64 42.38 11.6199 41.92 11.8399L36.0799 14.76C35.2199 15.18 34.7 16.04 34.7 17V22.52C34.7 23.02 34.9599 23.48 35.3799 23.74C35.6199 23.88 35.88 23.9599 36.14 23.9599C36.36 23.9599 36.5799 23.9 36.7799 23.8L42.6199 20.88C43.4799 20.46 43.9999 19.6 43.9999 18.64V13.12C43.9999 12.62 43.7399 12.16 43.3199 11.9Z" fill="white"/>
</svg>
