<svg width="48" height="48" viewBox="0 0 48 48" fill="none" xmlns="http://www.w3.org/2000/svg">
<path d="M44 12V16.84C44 20 42 22 38.84 22H32V8.02004C32 5.80004 33.82 3.98004 36.04 4.00004C38.22 4.02004 40.22 4.90004 41.66 6.34004C43.1 7.80004 44 9.80004 44 12Z" fill="white"/>
<path opacity="0.4" d="M4 14V42C4 43.66 5.88 44.6 7.2 43.6L10.62 41.04C11.42 40.44 12.54 40.52 13.26 41.24L16.58 44.58C17.36 45.36 18.64 45.36 19.42 44.58L22.78 41.22C23.48 40.52 24.6 40.44 25.38 41.04L28.8 43.6C30.12 44.58 32 43.64 32 42V8C32 5.8 33.8 4 36 4H14H12C6 4 4 7.58 4 12V14Z" fill="white"/>
<path d="M24 24.52H18C17.18 24.52 16.5 25.2 16.5 26.02C16.5 26.84 17.18 27.52 18 27.52H24C24.82 27.52 25.5 26.84 25.5 26.02C25.5 25.2 24.82 24.52 24 24.52Z" fill="white"/>
<path d="M18 19.52H24C24.82 19.52 25.5 18.84 25.5 18.02C25.5 17.2 24.82 16.52 24 16.52H18C17.18 16.52 16.5 17.2 16.5 18.02C16.5 18.84 17.18 19.52 18 19.52Z" fill="white"/>
<path d="M11.9399 16.02C10.8199 16.02 9.93994 16.92 9.93994 18.02C9.93994 19.12 10.8399 20.02 11.9399 20.02C13.0399 20.02 13.9399 19.12 13.9399 18.02C13.9399 16.92 13.0399 16.02 11.9399 16.02Z" fill="white"/>
<path d="M11.9399 24.02C10.8199 24.02 9.93994 24.92 9.93994 26.02C9.93994 27.12 10.8399 28.02 11.9399 28.02C13.0399 28.02 13.9399 27.12 13.9399 26.02C13.9399 24.92 13.0399 24.02 11.9399 24.02Z" fill="white"/>
</svg>
