<svg width="48" height="48" viewBox="0 0 48 48" fill="none" xmlns="http://www.w3.org/2000/svg">
<path opacity="0.4" d="M19.92 4.22001L8.91998 8.34001C6.81998 9.14001 5.09998 11.62 5.09998 13.88V30.08C5.09998 31.7 6.15998 33.84 7.45998 34.8L18.46 43.02C20.4 44.48 23.58 44.48 25.52 43.02L36.52 34.8C37.82 33.82 38.88 31.7 38.88 30.08V13.88C38.88 11.64 37.16 9.14001 35.06 8.36001L24.06 4.24001C22.94 3.80001 21.06 3.80001 19.92 4.22001Z" fill="white"/>
<path d="M32 23.02C27.04 23.02 23 27.06 23 32.02C23 36.98 27.04 41.02 32 41.02C36.96 41.02 41 36.98 41 32.02C41 27.04 36.96 23.02 32 23.02Z" fill="white"/>
<path d="M42 44C41.46 44 40.96 43.78 40.58 43.42C40.5 43.32 40.4 43.22 40.34 43.1C40.26 43 40.2 42.88 40.16 42.76C40.1 42.64 40.06 42.5201 40.04 42.4001C40.02 42.2601 40 42.1401 40 42.0001C40 41.7401 40.06 41.4801 40.16 41.2401C40.26 40.9801 40.4 40.7801 40.58 40.5801C41.04 40.1201 41.74 39.9001 42.38 40.0401C42.52 40.0601 42.64 40.1001 42.76 40.1601C42.88 40.2001 43 40.2601 43.1 40.3401C43.22 40.4001 43.32 40.5001 43.42 40.5801C43.6 40.7801 43.74 40.9801 43.84 41.2401C43.94 41.4801 44 41.7401 44 42.0001C44 42.5201 43.78 43.04 43.42 43.42C43.32 43.5 43.22 43.58 43.1 43.66C43 43.74 42.88 43.8 42.76 43.84C42.64 43.9 42.52 43.94 42.38 43.96C42.26 43.98 42.12 44 42 44Z" fill="white"/>
</svg>
