<svg width="36" height="36" viewBox="0 0 36 36" fill="none" xmlns="http://www.w3.org/2000/svg">
<circle cx="18" cy="18" r="18" fill="black"/>
<path d="M17.4502 20.9346L17.3887 16.1182C17.3887 16.0068 17.3711 15.916 17.3359 15.8457C17.1953 15.6172 17.0752 15.5615 16.9756 15.6787L16.624 16.0391C16.5303 16.1445 16.4395 16.1562 16.3516 16.0742C16.2695 15.9922 16.2842 15.8779 16.3955 15.7314C16.6533 15.4092 16.8848 15.0869 17.0898 14.7646C17.2949 14.4424 17.5059 14.123 17.7227 13.8066C17.8164 13.6953 17.9248 13.6982 18.0479 13.8154C18.2939 14.1143 18.5342 14.3779 18.7686 14.6064C19.0029 14.8291 19.3369 15.0664 19.7705 15.3184C19.8936 15.3652 19.9463 15.4209 19.9287 15.4854C19.917 15.5498 19.8789 15.585 19.8145 15.5908C19.6621 15.6494 19.5273 15.752 19.4102 15.8984C19.293 16.0391 19.2344 16.2764 19.2344 16.6104V20.3281C19.2344 20.9258 19.3457 21.292 19.5684 21.4268C19.8262 21.5791 20.0371 21.5146 20.2012 21.2334C20.2598 21.1221 20.3301 21.0986 20.4121 21.1631C20.5 21.2217 20.5 21.3213 20.4121 21.4619C20.2363 21.7373 20.0723 22.0156 19.9199 22.2969C19.7676 22.5723 19.6123 22.8477 19.4541 23.123C19.3428 23.2871 19.2051 23.3223 19.041 23.2285C18.5137 22.9766 18.1152 22.6689 17.8457 22.3057C17.582 21.9424 17.4502 21.4854 17.4502 20.9346ZM18.7246 10.502C19.375 10.502 19.6709 10.8154 19.6123 11.4424C19.5771 11.7588 19.3779 12.0781 19.0146 12.4004C18.6572 12.7168 18.373 12.8721 18.1621 12.8662C17.9512 12.8662 17.79 12.6992 17.6787 12.3652C17.5674 12.0312 17.5234 11.7236 17.5469 11.4424C17.5645 11.1729 17.6934 10.9502 17.9336 10.7744C18.1797 10.5928 18.4434 10.502 18.7246 10.502Z" fill="white"/>
</svg>
