<svg width="82" height="77" viewBox="0 0 82 77" fill="none" xmlns="http://www.w3.org/2000/svg">
<path fill-rule="evenodd" clip-rule="evenodd" d="M81.2676 10.3888C86.7008 10.663 91.0194 13.369 95.3381 16.4076C109.502 26.3858 114.239 41.8677 104.533 57.0813C89.4409 80.6739 54.2875 96.1148 27.0287 88.9888C20.9918 87.4183 12.8188 86.034 6.82841 78.3646C1.25591 71.2336 1.4881 62.7561 4.04216 54.9077C6.64266 46.8607 11.6579 39.4545 15.6515 34.6938C33.112 13.9229 68.0795 -4.95503 99.7034 4.99727C100.354 5.18903 101.004 4.85926 101.189 4.26076C101.375 3.66225 101.05 3.02048 100.446 2.82872C67.8935 -7.41372 31.8116 11.8696 13.8403 33.2459C8.87148 39.1822 2.37059 49.0916 0.513089 59.3446C-0.740723 66.3522 0.141408 73.5155 4.97091 79.747C11.3328 87.9165 20.0167 89.5167 26.4251 91.1892C54.5662 98.5493 90.9265 82.6571 106.483 58.2906C116.932 41.9387 111.916 25.2827 96.685 14.5574C92.0412 11.2606 87.3044 8.41157 81.4068 8.1146C80.7567 8.08226 80.1996 8.56553 80.1996 9.19318C80.1532 9.82084 80.6639 10.3565 81.2676 10.3888Z" fill="#99C2FF"/>
</svg>
